<svg width="2508" height="316" viewBox="0 0 2508 316" fill="none" xmlns="http://www.w3.org/2000/svg">
<g filter="url(#filter0_ii_1298_17859)">
<rect width="315.3" height="315.3" rx="66.3606" fill="#A1A1A1"/>
<path d="M105.873 96.3636H123.018L157.308 154.077H158.756L193.046 96.3636H210.191L165.518 169.048V220H150.546V169.048L105.873 96.3636Z" fill="white"/>
</g>
<path d="M388.507 103.058H404.274L441.348 193.612H442.626L479.7 103.058H495.467V212.148H483.109V129.265H482.044L447.953 212.148H436.021L401.93 129.265H400.865V212.148H388.507V103.058ZM544.327 214.066C539.142 214.066 534.437 213.089 530.211 211.136C525.985 209.148 522.629 206.289 520.143 202.56C517.657 198.796 516.415 194.251 516.415 188.924C516.415 184.237 517.338 180.437 519.184 177.525C521.031 174.577 523.499 172.269 526.589 170.6C529.678 168.931 533.087 167.688 536.816 166.871C540.58 166.019 544.362 165.344 548.162 164.847C553.133 164.208 557.164 163.729 560.253 163.409C563.378 163.054 565.651 162.468 567.072 161.651C568.528 160.835 569.256 159.414 569.256 157.39V156.964C569.256 151.708 567.817 147.624 564.941 144.712C562.1 141.8 557.785 140.344 551.997 140.344C545.996 140.344 541.29 141.658 537.881 144.286C534.472 146.914 532.075 149.719 530.69 152.702L518.758 148.441C520.889 143.469 523.73 139.599 527.281 136.829C530.868 134.023 534.774 132.07 539 130.969C543.261 129.833 547.452 129.265 551.571 129.265C554.199 129.265 557.217 129.585 560.626 130.224C564.071 130.827 567.391 132.088 570.587 134.006C573.819 135.923 576.5 138.817 578.631 142.688C580.761 146.559 581.827 151.744 581.827 158.242V212.148H569.256V201.069H568.616C567.764 202.844 566.344 204.744 564.355 206.768C562.366 208.793 559.721 210.515 556.418 211.935C553.116 213.356 549.085 214.066 544.327 214.066ZM546.244 202.773C551.216 202.773 555.406 201.797 558.815 199.844C562.26 197.891 564.852 195.369 566.592 192.28C568.368 189.19 569.256 185.941 569.256 182.532V171.026C568.723 171.665 567.551 172.251 565.74 172.784C563.964 173.281 561.905 173.725 559.561 174.116C557.253 174.471 554.998 174.79 552.796 175.075C550.63 175.323 548.872 175.536 547.523 175.714C544.256 176.14 541.202 176.832 538.361 177.791C535.555 178.714 533.282 180.117 531.542 181.999C529.838 183.846 528.986 186.367 528.986 189.563C528.986 193.931 530.601 197.234 533.833 199.471C537.1 201.673 541.237 202.773 546.244 202.773ZM616.49 182.319L616.277 166.765H618.834L654.629 130.33H670.183L632.044 168.896H630.979L616.49 182.319ZM604.771 212.148V103.058H617.342V212.148H604.771ZM656.76 212.148L624.8 171.665L633.749 162.93L672.74 212.148H656.76ZM717.298 213.853C709.414 213.853 702.614 212.113 696.897 208.633C691.215 205.117 686.829 200.217 683.74 193.931C680.686 187.61 679.159 180.259 679.159 171.879C679.159 163.498 680.686 156.112 683.74 149.719C686.829 143.292 691.126 138.285 696.63 134.698C702.17 131.076 708.633 129.265 716.02 129.265C720.281 129.265 724.489 129.975 728.644 131.396C732.799 132.816 736.581 135.124 739.99 138.32C743.399 141.481 746.115 145.671 748.14 150.891C750.164 156.112 751.176 162.539 751.176 170.174V175.501H688.108V164.634H738.392C738.392 160.018 737.468 155.898 735.622 152.276C733.811 148.654 731.218 145.795 727.845 143.7C724.507 141.605 720.565 140.558 716.02 140.558C711.012 140.558 706.68 141.8 703.022 144.286C699.4 146.737 696.613 149.933 694.659 153.874C692.706 157.816 691.73 162.042 691.73 166.552V173.796C691.73 179.975 692.795 185.213 694.926 189.51C697.092 193.771 700.093 197.021 703.928 199.258C707.763 201.46 712.22 202.56 717.298 202.56C720.6 202.56 723.583 202.099 726.247 201.175C728.946 200.217 731.272 198.796 733.225 196.914C735.178 194.996 736.687 192.617 737.752 189.776L749.897 193.185C748.619 197.305 746.471 200.927 743.452 204.052C740.434 207.141 736.705 209.556 732.266 211.296C727.827 213.001 722.838 213.853 717.298 213.853ZM870.441 148.654L859.148 151.85C858.438 149.968 857.39 148.139 856.005 146.364C854.656 144.553 852.809 143.061 850.466 141.889C848.122 140.717 845.121 140.131 841.463 140.131C836.456 140.131 832.284 141.286 828.946 143.594C825.643 145.866 823.992 148.761 823.992 152.276C823.992 155.401 825.128 157.869 827.401 159.68C829.674 161.491 833.225 163.001 838.054 164.208L850.199 167.191C857.515 168.967 862.966 171.683 866.552 175.341C870.139 178.963 871.932 183.633 871.932 189.35C871.932 194.038 870.583 198.228 867.884 201.921C865.221 205.614 861.492 208.526 856.698 210.657C851.904 212.788 846.328 213.853 839.972 213.853C831.627 213.853 824.72 212.042 819.251 208.42C813.782 204.798 810.32 199.506 808.864 192.546L820.796 189.563C821.932 193.967 824.081 197.269 827.241 199.471C830.437 201.673 834.61 202.773 839.759 202.773C845.618 202.773 850.27 201.531 853.715 199.045C857.195 196.523 858.935 193.505 858.935 189.989C858.935 187.148 857.941 184.769 855.952 182.852C853.963 180.898 850.909 179.442 846.79 178.484L833.154 175.288C825.661 173.512 820.157 170.76 816.641 167.031C813.161 163.267 811.421 158.562 811.421 152.915C811.421 148.299 812.717 144.215 815.309 140.664C817.937 137.113 821.506 134.325 826.016 132.301C830.561 130.277 835.711 129.265 841.463 129.265C849.56 129.265 855.917 131.04 860.533 134.592C865.185 138.143 868.488 142.83 870.441 148.654ZM924.094 213.853C916.708 213.853 910.227 212.095 904.651 208.58C899.112 205.064 894.779 200.146 891.654 193.825C888.565 187.504 887.02 180.117 887.02 171.665C887.02 163.143 888.565 155.703 891.654 149.347C894.779 142.99 899.112 138.054 904.651 134.538C910.227 131.023 916.708 129.265 924.094 129.265C931.48 129.265 937.943 131.023 943.483 134.538C949.058 138.054 953.391 142.99 956.48 149.347C959.605 155.703 961.168 163.143 961.168 171.665C961.168 180.117 959.605 187.504 956.48 193.825C953.391 200.146 949.058 205.064 943.483 208.58C937.943 212.095 931.48 213.853 924.094 213.853ZM924.094 202.56C929.705 202.56 934.321 201.122 937.943 198.246C941.566 195.369 944.247 191.587 945.987 186.9C947.727 182.212 948.597 177.134 948.597 171.665C948.597 166.197 947.727 161.101 945.987 156.378C944.247 151.655 941.566 147.837 937.943 144.925C934.321 142.013 929.705 140.558 924.094 140.558C918.483 140.558 913.867 142.013 910.244 144.925C906.622 147.837 903.941 151.655 902.201 156.378C900.461 161.101 899.591 166.197 899.591 171.665C899.591 177.134 900.461 182.212 902.201 186.9C903.941 191.587 906.622 195.369 910.244 198.246C913.867 201.122 918.483 202.56 924.094 202.56ZM980.357 212.148V130.33H992.502V143.114H993.567C995.272 138.746 998.024 135.355 1001.82 132.94C1005.62 130.49 1010.19 129.265 1015.51 129.265C1020.91 129.265 1025.4 130.49 1028.99 132.94C1032.61 135.355 1035.44 138.746 1037.46 143.114H1038.31C1040.41 138.888 1043.55 135.533 1047.74 133.047C1051.93 130.526 1056.96 129.265 1062.81 129.265C1070.13 129.265 1076.11 131.555 1080.77 136.136C1085.42 140.682 1087.74 147.766 1087.74 157.39V212.148H1075.17V157.39C1075.17 151.353 1073.52 147.038 1070.22 144.446C1066.92 141.854 1063.03 140.558 1058.55 140.558C1052.8 140.558 1048.34 142.298 1045.18 145.778C1042.02 149.222 1040.44 153.59 1040.44 158.881V212.148H1027.66V156.112C1027.66 151.46 1026.15 147.713 1023.13 144.872C1020.11 141.996 1016.22 140.558 1011.47 140.558C1008.2 140.558 1005.14 141.428 1002.3 143.168C999.498 144.908 997.225 147.322 995.485 150.412C993.781 153.466 992.928 156.999 992.928 161.012V212.148H980.357ZM1145.03 213.853C1137.15 213.853 1130.35 212.113 1124.63 208.633C1118.95 205.117 1114.56 200.217 1111.47 193.931C1108.42 187.61 1106.89 180.259 1106.89 171.879C1106.89 163.498 1108.42 156.112 1111.47 149.719C1114.56 143.292 1118.86 138.285 1124.36 134.698C1129.9 131.076 1136.37 129.265 1143.75 129.265C1148.02 129.265 1152.22 129.975 1156.38 131.396C1160.53 132.816 1164.31 135.124 1167.72 138.32C1171.13 141.481 1173.85 145.671 1175.87 150.891C1177.9 156.112 1178.91 162.539 1178.91 170.174V175.501H1115.84V164.634H1166.13C1166.13 160.018 1165.2 155.898 1163.36 152.276C1161.55 148.654 1158.95 145.795 1155.58 143.7C1152.24 141.605 1148.3 140.558 1143.75 140.558C1138.75 140.558 1134.41 141.8 1130.76 144.286C1127.13 146.737 1124.35 149.933 1122.39 153.874C1120.44 157.816 1119.46 162.042 1119.46 166.552V173.796C1119.46 179.975 1120.53 185.213 1122.66 189.51C1124.83 193.771 1127.83 197.021 1131.66 199.258C1135.5 201.46 1139.95 202.56 1145.03 202.56C1148.33 202.56 1151.32 202.099 1153.98 201.175C1156.68 200.217 1159.01 198.796 1160.96 196.914C1162.91 194.996 1164.42 192.617 1165.49 189.776L1177.63 193.185C1176.35 197.305 1174.2 200.927 1171.19 204.052C1168.17 207.141 1164.44 209.556 1160 211.296C1155.56 213.001 1150.57 213.853 1145.03 213.853ZM1233.62 130.33V140.984H1191.21V130.33H1233.62ZM1203.57 110.728H1216.14V188.711C1216.14 192.262 1216.66 194.925 1217.69 196.701C1218.75 198.441 1220.1 199.613 1221.74 200.217C1223.41 200.785 1225.16 201.069 1227.01 201.069C1228.4 201.069 1229.53 200.998 1230.42 200.856C1231.31 200.678 1232.02 200.536 1232.55 200.43L1235.11 211.722C1234.25 212.042 1233.06 212.362 1231.54 212.681C1230.01 213.036 1228.08 213.214 1225.73 213.214C1222.18 213.214 1218.7 212.45 1215.29 210.923C1211.92 209.396 1209.11 207.07 1206.88 203.945C1204.67 200.82 1203.57 196.879 1203.57 192.12V110.728ZM1266.85 162.93V212.148H1254.28V103.058H1266.85V143.114H1267.92C1269.84 138.888 1272.71 135.533 1276.55 133.047C1280.42 130.526 1285.57 129.265 1292 129.265C1297.57 129.265 1302.45 130.384 1306.64 132.621C1310.83 134.822 1314.08 138.214 1316.39 142.795C1318.74 147.34 1319.91 153.129 1319.91 160.16V212.148H1307.34V161.012C1307.34 154.513 1305.65 149.489 1302.28 145.938C1298.94 142.351 1294.3 140.558 1288.37 140.558C1284.25 140.558 1280.56 141.428 1277.29 143.168C1274.06 144.908 1271.51 147.447 1269.62 150.785C1267.78 154.123 1266.85 158.171 1266.85 162.93ZM1342.91 212.148V130.33H1355.48V212.148H1342.91ZM1349.3 116.694C1346.85 116.694 1344.73 115.859 1342.96 114.19C1341.22 112.521 1340.35 110.515 1340.35 108.171C1340.35 105.827 1341.22 103.821 1342.96 102.152C1344.73 100.483 1346.85 99.6484 1349.3 99.6484C1351.75 99.6484 1353.84 100.483 1355.58 102.152C1357.36 103.821 1358.25 105.827 1358.25 108.171C1358.25 110.515 1357.36 112.521 1355.58 114.19C1353.84 115.859 1351.75 116.694 1349.3 116.694ZM1391.07 162.93V212.148H1378.5V130.33H1390.65V143.114H1391.71C1393.63 138.96 1396.54 135.621 1400.45 133.1C1404.35 130.543 1409.4 129.265 1415.58 129.265C1421.12 129.265 1425.96 130.401 1430.12 132.674C1434.27 134.911 1437.5 138.32 1439.81 142.901C1442.12 147.447 1443.27 153.2 1443.27 160.16V212.148H1430.7V161.012C1430.7 154.585 1429.03 149.577 1425.7 145.991C1422.36 142.369 1417.78 140.558 1411.95 140.558C1407.94 140.558 1404.35 141.428 1401.19 143.168C1398.07 144.908 1395.6 147.447 1393.79 150.785C1391.98 154.123 1391.07 158.171 1391.07 162.93ZM1499.27 244.535C1493.2 244.535 1487.98 243.754 1483.61 242.191C1479.24 240.664 1475.6 238.64 1472.69 236.119C1469.81 233.633 1467.52 230.969 1465.82 228.129L1475.83 221.097C1476.97 222.589 1478.41 224.293 1480.15 226.211C1481.89 228.164 1484.27 229.851 1487.29 231.271C1490.34 232.727 1494.34 233.455 1499.27 233.455C1505.88 233.455 1511.33 231.857 1515.62 228.661C1519.92 225.465 1522.07 220.458 1522.07 213.64V197.021H1521C1520.08 198.512 1518.77 200.359 1517.06 202.56C1515.39 204.727 1512.98 206.662 1509.82 208.366C1506.69 210.036 1502.47 210.87 1497.14 210.87C1490.54 210.87 1484.61 209.308 1479.35 206.183C1474.13 203.058 1469.99 198.512 1466.94 192.546C1463.92 186.58 1462.41 179.336 1462.41 170.813C1462.41 162.433 1463.88 155.135 1466.83 148.92C1469.78 142.67 1473.88 137.841 1479.14 134.432C1484.39 130.987 1490.46 129.265 1497.35 129.265C1502.68 129.265 1506.91 130.153 1510.03 131.928C1513.19 133.668 1515.61 135.657 1517.28 137.894C1518.98 140.096 1520.29 141.907 1521.22 143.327H1522.5V130.33H1534.64V214.492C1534.64 221.523 1533.04 227.241 1529.85 231.644C1526.69 236.083 1522.42 239.332 1517.06 241.392C1511.74 243.487 1505.81 244.535 1499.27 244.535ZM1498.85 199.577C1503.89 199.577 1508.15 198.423 1511.63 196.115C1515.11 193.807 1517.76 190.487 1519.57 186.154C1521.38 181.822 1522.28 176.637 1522.28 170.6C1522.28 164.705 1521.4 159.503 1519.62 154.993C1517.84 150.483 1515.22 146.95 1511.74 144.393C1508.26 141.836 1503.96 140.558 1498.85 140.558C1493.52 140.558 1489.08 141.907 1485.53 144.606C1482.01 147.305 1479.37 150.927 1477.59 155.472C1475.85 160.018 1474.98 165.06 1474.98 170.6C1474.98 176.282 1475.87 181.307 1477.65 185.675C1479.46 190.007 1482.12 193.416 1485.64 195.902C1489.19 198.352 1493.59 199.577 1498.85 199.577ZM1599.84 242.83V130.33H1611.98V143.327H1613.48C1614.4 141.907 1615.68 140.096 1617.31 137.894C1618.98 135.657 1621.36 133.668 1624.45 131.928C1627.57 130.153 1631.8 129.265 1637.13 129.265C1644.02 129.265 1650.09 130.987 1655.34 134.432C1660.6 137.876 1664.7 142.759 1667.65 149.08C1670.6 155.401 1672.07 162.859 1672.07 171.452C1672.07 180.117 1670.6 187.628 1667.65 193.984C1664.7 200.305 1660.62 205.206 1655.4 208.686C1650.18 212.131 1644.16 213.853 1637.34 213.853C1632.08 213.853 1627.88 212.983 1624.72 211.243C1621.55 209.467 1619.12 207.461 1617.42 205.224C1615.71 202.951 1614.4 201.069 1613.48 199.577H1612.41V242.83H1599.84ZM1612.2 171.239C1612.2 177.418 1613.1 182.869 1614.91 187.592C1616.73 192.28 1619.37 195.955 1622.85 198.619C1626.33 201.246 1630.59 202.56 1635.64 202.56C1640.89 202.56 1645.28 201.175 1648.79 198.406C1652.34 195.6 1655.01 191.836 1656.78 187.113C1658.59 182.354 1659.5 177.063 1659.5 171.239C1659.5 165.487 1658.61 160.302 1656.84 155.685C1655.1 151.033 1652.45 147.358 1648.9 144.659C1645.38 141.925 1640.96 140.558 1635.64 140.558C1630.52 140.558 1626.22 141.854 1622.74 144.446C1619.26 147.003 1616.64 150.589 1614.86 155.206C1613.09 159.787 1612.2 165.131 1612.2 171.239ZM1725.55 213.853C1717.67 213.853 1710.87 212.113 1705.15 208.633C1699.47 205.117 1695.08 200.217 1691.99 193.931C1688.94 187.61 1687.41 180.259 1687.41 171.879C1687.41 163.498 1688.94 156.112 1691.99 149.719C1695.08 143.292 1699.38 138.285 1704.88 134.698C1710.42 131.076 1716.89 129.265 1724.27 129.265C1728.53 129.265 1732.74 129.975 1736.9 131.396C1741.05 132.816 1744.83 135.124 1748.24 138.32C1751.65 141.481 1754.37 145.671 1756.39 150.891C1758.42 156.112 1759.43 162.539 1759.43 170.174V175.501H1696.36V164.634H1746.64C1746.64 160.018 1745.72 155.898 1743.87 152.276C1742.06 148.654 1739.47 145.795 1736.1 143.7C1732.76 141.605 1728.82 140.558 1724.27 140.558C1719.26 140.558 1714.93 141.8 1711.27 144.286C1707.65 146.737 1704.86 149.933 1702.91 153.874C1700.96 157.816 1699.98 162.042 1699.98 166.552V173.796C1699.98 179.975 1701.05 185.213 1703.18 189.51C1705.34 193.771 1708.34 197.021 1712.18 199.258C1716.02 201.46 1720.47 202.56 1725.55 202.56C1728.85 202.56 1731.84 202.099 1734.5 201.175C1737.2 200.217 1739.52 198.796 1741.48 196.914C1743.43 194.996 1744.94 192.617 1746 189.776L1758.15 193.185C1756.87 197.305 1754.72 200.927 1751.7 204.052C1748.69 207.141 1744.96 209.556 1740.52 211.296C1736.08 213.001 1731.09 213.853 1725.55 213.853ZM1811.79 213.853C1804.4 213.853 1797.92 212.095 1792.35 208.58C1786.81 205.064 1782.47 200.146 1779.35 193.825C1776.26 187.504 1774.72 180.117 1774.72 171.665C1774.72 163.143 1776.26 155.703 1779.35 149.347C1782.47 142.99 1786.81 138.054 1792.35 134.538C1797.92 131.023 1804.4 129.265 1811.79 129.265C1819.18 129.265 1825.64 131.023 1831.18 134.538C1836.75 138.054 1841.09 142.99 1844.18 149.347C1847.3 155.703 1848.86 163.143 1848.86 171.665C1848.86 180.117 1847.3 187.504 1844.18 193.825C1841.09 200.146 1836.75 205.064 1831.18 208.58C1825.64 212.095 1819.18 213.853 1811.79 213.853ZM1811.79 202.56C1817.4 202.56 1822.02 201.122 1825.64 198.246C1829.26 195.369 1831.94 191.587 1833.68 186.9C1835.42 182.212 1836.29 177.134 1836.29 171.665C1836.29 166.197 1835.42 161.101 1833.68 156.378C1831.94 151.655 1829.26 147.837 1825.64 144.925C1822.02 142.013 1817.4 140.558 1811.79 140.558C1806.18 140.558 1801.56 142.013 1797.94 144.925C1794.32 147.837 1791.64 151.655 1789.9 156.378C1788.16 161.101 1787.29 166.197 1787.29 171.665C1787.29 177.134 1788.16 182.212 1789.9 186.9C1791.64 191.587 1794.32 195.369 1797.94 198.246C1801.56 201.122 1806.18 202.56 1811.79 202.56ZM1868.05 242.83V130.33H1880.2V143.327H1881.69C1882.61 141.907 1883.89 140.096 1885.52 137.894C1887.19 135.657 1889.57 133.668 1892.66 131.928C1895.79 130.153 1900.01 129.265 1905.34 129.265C1912.23 129.265 1918.3 130.987 1923.56 134.432C1928.81 137.876 1932.91 142.759 1935.86 149.08C1938.81 155.401 1940.28 162.859 1940.28 171.452C1940.28 180.117 1938.81 187.628 1935.86 193.984C1932.91 200.305 1928.83 205.206 1923.61 208.686C1918.39 212.131 1912.37 213.853 1905.55 213.853C1900.3 213.853 1896.09 212.983 1892.93 211.243C1889.77 209.467 1887.34 207.461 1885.63 205.224C1883.93 202.951 1882.61 201.069 1881.69 199.577H1880.62V242.83H1868.05ZM1880.41 171.239C1880.41 177.418 1881.32 182.869 1883.13 187.592C1884.94 192.28 1887.58 195.955 1891.06 198.619C1894.54 201.246 1898.81 202.56 1903.85 202.56C1909.1 202.56 1913.49 201.175 1917 198.406C1920.56 195.6 1923.22 191.836 1925 187.113C1926.81 182.354 1927.71 177.063 1927.71 171.239C1927.71 165.487 1926.82 160.302 1925.05 155.685C1923.31 151.033 1920.66 147.358 1917.11 144.659C1913.6 141.925 1909.17 140.558 1903.85 140.558C1898.73 140.558 1894.44 141.854 1890.96 144.446C1887.48 147.003 1884.85 150.589 1883.07 155.206C1881.3 159.787 1880.41 165.131 1880.41 171.239ZM1972.03 103.058V212.148H1959.46V103.058H1972.03ZM2029.36 213.853C2021.47 213.853 2014.67 212.113 2008.96 208.633C2003.28 205.117 1998.89 200.217 1995.8 193.931C1992.75 187.61 1991.22 180.259 1991.22 171.879C1991.22 163.498 1992.75 156.112 1995.8 149.719C1998.89 143.292 2003.19 138.285 2008.69 134.698C2014.23 131.076 2020.69 129.265 2028.08 129.265C2032.34 129.265 2036.55 129.975 2040.7 131.396C2044.86 132.816 2048.64 135.124 2052.05 138.32C2055.46 141.481 2058.18 145.671 2060.2 150.891C2062.22 156.112 2063.24 162.539 2063.24 170.174V175.501H2000.17V164.634H2050.45C2050.45 160.018 2049.53 155.898 2047.68 152.276C2045.87 148.654 2043.28 145.795 2039.91 143.7C2036.57 141.605 2032.63 140.558 2028.08 140.558C2023.07 140.558 2018.74 141.8 2015.08 144.286C2011.46 146.737 2008.67 149.933 2006.72 153.874C2004.77 157.816 2003.79 162.042 2003.79 166.552V173.796C2003.79 179.975 2004.86 185.213 2006.99 189.51C2009.15 193.771 2012.15 197.021 2015.99 199.258C2019.82 201.46 2024.28 202.56 2029.36 202.56C2032.66 202.56 2035.64 202.099 2038.31 201.175C2041.01 200.217 2043.33 198.796 2045.29 196.914C2047.24 194.996 2048.75 192.617 2049.81 189.776L2061.96 193.185C2060.68 197.305 2058.53 200.927 2055.51 204.052C2052.49 207.141 2048.77 209.556 2044.33 211.296C2039.89 213.001 2034.9 213.853 2029.36 213.853ZM2143.08 212.148L2118.15 130.33H2131.36L2149.05 192.972H2149.9L2167.37 130.33H2180.8L2198.06 192.759H2198.91L2216.59 130.33H2229.8L2204.87 212.148H2192.52L2174.62 149.293H2173.34L2155.44 212.148H2143.08ZM2270.5 214.066C2265.31 214.066 2260.61 213.089 2256.38 211.136C2252.16 209.148 2248.8 206.289 2246.32 202.56C2243.83 198.796 2242.59 194.251 2242.59 188.924C2242.59 184.237 2243.51 180.437 2245.36 177.525C2247.2 174.577 2249.67 172.269 2252.76 170.6C2255.85 168.931 2259.26 167.688 2262.99 166.871C2266.75 166.019 2270.53 165.344 2274.33 164.847C2279.31 164.208 2283.34 163.729 2286.43 163.409C2289.55 163.054 2291.82 162.468 2293.24 161.651C2294.7 160.835 2295.43 159.414 2295.43 157.39V156.964C2295.43 151.708 2293.99 147.624 2291.11 144.712C2288.27 141.8 2283.96 140.344 2278.17 140.344C2272.17 140.344 2267.46 141.658 2264.05 144.286C2260.64 146.914 2258.25 149.719 2256.86 152.702L2244.93 148.441C2247.06 143.469 2249.9 139.599 2253.45 136.829C2257.04 134.023 2260.95 132.07 2265.17 130.969C2269.43 129.833 2273.62 129.265 2277.74 129.265C2280.37 129.265 2283.39 129.585 2286.8 130.224C2290.24 130.827 2293.56 132.088 2296.76 134.006C2299.99 135.923 2302.67 138.817 2304.8 142.688C2306.93 146.559 2308 151.744 2308 158.242V212.148H2295.43V201.069H2294.79C2293.94 202.844 2292.52 204.744 2290.53 206.768C2288.54 208.793 2285.89 210.515 2282.59 211.935C2279.29 213.356 2275.26 214.066 2270.5 214.066ZM2272.42 202.773C2277.39 202.773 2281.58 201.797 2284.99 199.844C2288.43 197.891 2291.02 195.369 2292.76 192.28C2294.54 189.19 2295.43 185.941 2295.43 182.532V171.026C2294.89 171.665 2293.72 172.251 2291.91 172.784C2290.14 173.281 2288.08 173.725 2285.73 174.116C2283.42 174.471 2281.17 174.79 2278.97 175.075C2276.8 175.323 2275.04 175.536 2273.69 175.714C2270.43 176.14 2267.37 176.832 2264.53 177.791C2261.73 178.714 2259.45 180.117 2257.71 181.999C2256.01 183.846 2255.16 186.367 2255.16 189.563C2255.16 193.931 2256.77 197.234 2260 199.471C2263.27 201.673 2267.41 202.773 2272.42 202.773ZM2343.51 162.93V212.148H2330.94V130.33H2343.09V143.114H2344.15C2346.07 138.96 2348.98 135.621 2352.89 133.1C2356.8 130.543 2361.84 129.265 2368.02 129.265C2373.56 129.265 2378.4 130.401 2382.56 132.674C2386.71 134.911 2389.95 138.32 2392.25 142.901C2394.56 147.447 2395.72 153.2 2395.72 160.16V212.148H2383.14V161.012C2383.14 154.585 2381.48 149.577 2378.14 145.991C2374.8 142.369 2370.22 140.558 2364.39 140.558C2360.38 140.558 2356.8 141.428 2353.63 143.168C2350.51 144.908 2348.04 147.447 2346.23 150.785C2344.42 154.123 2343.51 158.171 2343.51 162.93ZM2454.27 130.33V140.984H2411.87V130.33H2454.27ZM2424.23 110.728H2436.8V188.711C2436.8 192.262 2437.31 194.925 2438.34 196.701C2439.41 198.441 2440.76 199.613 2442.39 200.217C2444.06 200.785 2445.82 201.069 2447.66 201.069C2449.05 201.069 2450.19 200.998 2451.07 200.856C2451.96 200.678 2452.67 200.536 2453.2 200.43L2455.76 211.722C2454.91 212.042 2453.72 212.362 2452.19 212.681C2450.67 213.036 2448.73 213.214 2446.39 213.214C2442.84 213.214 2439.35 212.45 2435.95 210.923C2432.57 209.396 2429.77 207.07 2427.53 203.945C2425.33 200.82 2424.23 196.879 2424.23 192.12V110.728ZM2482.34 213.001C2479.71 213.001 2477.46 212.06 2475.58 210.178C2473.69 208.295 2472.75 206.04 2472.75 203.413C2472.75 200.785 2473.69 198.53 2475.58 196.648C2477.46 194.766 2479.71 193.825 2482.34 193.825C2484.97 193.825 2487.22 194.766 2489.11 196.648C2490.99 198.53 2491.93 200.785 2491.93 203.413C2491.93 205.153 2491.49 206.751 2490.6 208.207C2489.75 209.663 2488.59 210.835 2487.14 211.722C2485.72 212.575 2484.12 213.001 2482.34 213.001Z" fill="#A1A1A1"/>
<defs>
<filter id="filter0_ii_1298_17859" x="-138.251" y="-138.251" width="591.799" height="591.799" filterUnits="userSpaceOnUse" color-interpolation-filters="sRGB">
<feFlood flood-opacity="0" result="BackgroundImageFix"/>
<feBlend mode="normal" in="SourceGraphic" in2="BackgroundImageFix" result="shape"/>
<feColorMatrix in="SourceAlpha" type="matrix" values="0 0 0 0 0 0 0 0 0 0 0 0 0 0 0 0 0 0 127 0" result="hardAlpha"/>
<feOffset dx="4.14754" dy="4.14754"/>
<feGaussianBlur stdDeviation="1.38251"/>
<feComposite in2="hardAlpha" operator="arithmetic" k2="-1" k3="1"/>
<feColorMatrix type="matrix" values="0 0 0 0 1 0 0 0 0 1 0 0 0 0 1 0 0 0 0.1 0"/>
<feBlend mode="normal" in2="shape" result="effect1_innerShadow_1298_17859"/>
<feColorMatrix in="SourceAlpha" type="matrix" values="0 0 0 0 0 0 0 0 0 0 0 0 0 0 0 0 0 0 127 0" result="hardAlpha"/>
<feOffset dx="-2.76502"/>
<feGaussianBlur stdDeviation="1.38251"/>
<feComposite in2="hardAlpha" operator="arithmetic" k2="-1" k3="1"/>
<feColorMatrix type="matrix" values="0 0 0 0 1 0 0 0 0 1 0 0 0 0 1 0 0 0 0.2 0"/>
<feBlend mode="normal" in2="effect1_innerShadow_1298_17859" result="effect2_innerShadow_1298_17859"/>
</filter>
</defs>
</svg>
